<?xml version="1.0" standalone="no"?>
<!DOCTYPE svg PUBLIC "-//W3C//DTD SVG 20010904//EN"
 "http://www.w3.org/TR/2001/REC-SVG-20010904/DTD/svg10.dtd">
<svg version="1.0" xmlns="http://www.w3.org/2000/svg"
 width="123.000000pt" height="123.000000pt" viewBox="0 0 123.000000 123.000000"
 preserveAspectRatio="xMidYMid meet">
<metadata>
Created by potrace 1.11, written by Peter Selinger 2001-2013
</metadata>
<g transform="translate(0.000000,123.000000) scale(0.100000,-0.100000)"
fill="#000000" stroke="none">
<path d="M570 1089 c-19 -4 -48 -10 -65 -13 -52 -10 -87 -17 -160 -32 -38 -9
-81 -18 -94 -20 -13 -3 -33 -10 -43 -15 -11 -6 -26 -8 -33 -5 -17 6 -25 -15
-25 -69 0 -38 5 -49 48 -92 27 -26 51 -58 54 -69 5 -19 0 -23 -34 -28 -21 -4
-44 -4 -50 0 -16 10 -28 -17 -28 -66 0 -39 18 -78 128 -283 136 -252 155 -282
175 -270 6 4 27 8 45 10 75 6 518 86 530 96 10 8 9 13 -3 27 -20 22 -20 89 0
96 23 9 18 23 -21 67 -27 30 -33 41 -23 48 10 6 7 22 -15 76 -16 37 -30 73
-33 79 -2 7 23 19 64 29 111 30 126 43 73 65 -26 11 -30 18 -30 51 0 32 5 41
25 51 14 6 24 16 22 21 -1 5 -27 22 -57 39 -30 16 -76 43 -103 59 -26 16 -49
29 -51 29 -2 0 -55 29 -117 65 -118 67 -122 68 -179 54z"/>
</g>
</svg>
